<svg width="30" height="30" viewBox="0 0 30 30" fill="none" xmlns="http://www.w3.org/2000/svg">
<circle cx="15" cy="15" r="9" fill="white"/>
<path fill-rule="evenodd" clip-rule="evenodd" d="M18.9586 1.63971C16.7723 -0.546569 13.2277 -0.546569 11.0414 1.63971L1.63971 11.0414C-0.546569 13.2277 -0.546569 16.7723 1.63971 18.9586L11.0414 28.3603C13.2277 30.5466 16.7723 30.5466 18.9586 28.3603L28.3603 18.9586C30.5466 16.7723 30.5466 13.2277 28.3603 11.0414L18.9586 1.63971ZM17.4396 9.1241L18.8032 9.84001C20.0127 10.4741 20.7232 10.8477 21.1636 11.3468L15 14.4286L8.83637 11.3468C9.27683 10.8477 9.98796 10.4741 11.1968 9.84001L12.5605 9.1241C13.7577 8.49546 14.3564 8.18183 15 8.18183C15.643 8.18183 16.2411 8.49551 17.4359 9.1222L17.4396 9.1241ZM15.5114 15.3164L21.6464 12.2482C21.8182 12.8632 21.8182 13.6705 21.8182 14.9611V15.0409C21.8182 16.7611 21.8182 17.6223 21.4111 18.3136C21.0039 19.0049 20.2714 19.3894 18.808 20.1575L18.8032 20.16L17.4396 20.8759C16.558 21.3389 16.0009 21.6307 15.5114 21.7527V15.3164ZM14.4886 15.3164V21.7527C13.9991 21.6307 13.4421 21.3389 12.5605 20.8759L11.1968 20.1607C9.73024 19.3909 8.9966 19.0057 8.58887 18.3136C8.18183 17.6223 8.18183 16.7611 8.18183 15.0396V14.9598C8.18183 13.6705 8.18183 12.8632 8.35364 12.2482L14.4886 15.3164Z" fill="#2F80ED"/>
</svg>
